<?xml version="1.0" encoding="utf-8"?>
<!-- Generator: Adobe Illustrator 19.1.1, SVG Export Plug-In . SVG Version: 6.00 Build 0)  -->
<svg version="1.1" id="Слой_1" xmlns="http://www.w3.org/2000/svg" xmlns:xlink="http://www.w3.org/1999/xlink" x="0px" y="0px"
	 viewBox="0 0 185 210" style="enable-background:new 0 0 185 210;" xml:space="preserve">
<style type="text/css">
	.st0{fill:url(#SVGID_1_);}
	.st1{fill:url(#SVGID_2_);}
	.st2{fill:url(#SVGID_3_);}
	.st3{fill:url(#SVGID_4_);}
	.st4{fill:url(#SVGID_5_);}
	.st5{fill:url(#SVGID_6_);}
	.st6{fill:url(#SVGID_7_);}
	.st7{fill:url(#SVGID_8_);}
	.st8{fill:url(#SVGID_9_);}
	.st9{fill:url(#SVGID_10_);}
</style>
<linearGradient id="SVGID_1_" gradientUnits="userSpaceOnUse" x1="57.7887" y1="5.9053" x2="62.4221" y2="94.5878">
	<stop  offset="0" style="stop-color:#EBC65A"/>
	<stop  offset="1" style="stop-color:#A3502C"/>
</linearGradient>
<path class="st0" d="M47.9,41.9c0-0.3,0-0.5,0-0.8c0-0.4,0-0.8,0-1.2c0-0.3,0-0.5,0-0.8c0-0.4,0-0.8,0-1.2c0-0.3,0-0.6,0-0.8
	c0-0.4,0-0.8,0.1-1.2c0-0.3,0-0.5,0.1-0.8c0-0.4,0.1-0.8,0.1-1.2c0-0.2,0-0.5,0.1-0.7c0-0.4,0.1-0.9,0.2-1.3c0-0.2,0-0.4,0.1-0.6
	c0.1-0.6,0.2-1.2,0.3-1.8c0-0.1,0-0.2,0-0.3c0.1-0.5,0.2-1,0.3-1.5c0-0.2,0.1-0.4,0.1-0.6c0.1-0.4,0.2-0.8,0.2-1.1
	c0.1-0.2,0.1-0.5,0.2-0.7c0.1-0.3,0.2-0.7,0.2-1c0.1-0.2,0.1-0.5,0.2-0.7c0.1-0.3,0.2-0.6,0.3-1c0.1-0.2,0.1-0.5,0.2-0.7
	c0.1-0.3,0.2-0.6,0.3-0.9c0.1-0.2,0.1-0.4,0.2-0.7c0.1-0.3,0.2-0.6,0.3-0.9c0.1-0.2,0.1-0.4,0.2-0.6c0.1-0.4,0.3-0.7,0.4-1
	c0.1-0.2,0.1-0.3,0.2-0.5c0.2-0.5,0.4-1,0.6-1.4c0.1-0.1,0.1-0.2,0.2-0.3c0.2-0.4,0.3-0.7,0.5-1c0.1-0.2,0.2-0.3,0.3-0.5
	c0.1-0.3,0.3-0.5,0.4-0.8c0.1-0.2,0.2-0.3,0.3-0.5c0.1-0.2,0.3-0.5,0.4-0.7c0.1-0.2,0.2-0.3,0.3-0.5c0.1-0.2,0.3-0.5,0.4-0.7
	c0.1-0.2,0.2-0.3,0.3-0.5c0.2-0.2,0.3-0.4,0.5-0.6c0.1-0.1,0.2-0.3,0.3-0.4c0.2-0.2,0.3-0.4,0.5-0.6c0.1-0.1,0.2-0.3,0.3-0.4
	c0.2-0.2,0.4-0.5,0.6-0.7c0.1-0.1,0.1-0.2,0.2-0.2c0.3-0.3,0.6-0.6,0.9-0.9C59.4,6.1,59.5,6,59.6,6c0.2-0.2,0.4-0.4,0.7-0.6
	c0.1-0.1,0.2-0.2,0.4-0.3C60.8,5,61,4.8,61.2,4.7c0.1-0.1,0.3-0.2,0.4-0.3c0.2-0.1,0.4-0.2,0.6-0.4c0.1-0.1,0.3-0.2,0.4-0.2
	c0.2-0.1,0.4-0.2,0.6-0.3c0.1-0.1,0.3-0.1,0.4-0.2c0.2-0.1,0.3-0.1,0.5-0.2c0.2-0.1,0.4-0.2,0.6-0.2c0.2-0.1,0.3-0.1,0.5-0.2
	c0.2-0.1,0.4-0.1,0.6-0.2c0.2,0,0.4-0.1,0.6-0.1c0.1,0,0.2,0,0.3,0c0.3,0,0.7-0.1,1-0.1c0.4,0,0.7,0,1.1,0c0.1,0,0.1,0,0.2,0
	c0.4,0,0.8,0.1,1.1,0.1c0.2,0,0.4,0.1,0.6,0.1c0.2,0,0.4,0.1,0.7,0.1c0.2,0.1,0.4,0.1,0.6,0.2c0.3,0.1,0.5,0.2,0.8,0.3
	c-1.1-0.4-2.2-0.9-3.4-1.3c-0.1,0-0.2-0.1-0.2-0.1c-0.2-0.1-0.4-0.1-0.5-0.2c-0.2-0.1-0.4-0.1-0.6-0.2c-0.2-0.1-0.4-0.1-0.7-0.1
	c-0.2,0-0.4-0.1-0.6-0.1c0,0-0.1,0-0.1,0c-0.3-0.1-0.7-0.1-1-0.1c-0.1,0-0.1,0-0.2,0c-0.3,0-0.5,0-0.8,0c-0.1,0-0.2,0-0.3,0
	c-0.3,0-0.7,0.1-1,0.1c-0.1,0-0.2,0-0.3,0c-0.1,0-0.2,0-0.3,0.1c-0.1,0-0.2,0-0.3,0.1c-0.2,0-0.4,0.1-0.6,0.2
	c-0.2,0-0.3,0.1-0.5,0.2c-0.2,0.1-0.4,0.1-0.6,0.2c-0.1,0-0.2,0.1-0.3,0.1c-0.1,0-0.1,0.1-0.2,0.1c-0.1,0.1-0.3,0.1-0.4,0.2
	c-0.2,0.1-0.4,0.2-0.6,0.3c-0.1,0.1-0.3,0.1-0.4,0.2c-0.2,0.1-0.4,0.2-0.6,0.4c-0.1,0.1-0.3,0.2-0.4,0.3c-0.2,0.1-0.4,0.3-0.6,0.4
	C57.1,3.9,57,4,56.9,4.1c-0.2,0.2-0.4,0.4-0.7,0.6c-0.1,0.1-0.2,0.1-0.2,0.2c-0.3,0.3-0.6,0.6-0.9,0.9C55,5.8,55,5.9,54.9,6
	c-0.2,0.2-0.4,0.5-0.6,0.7c-0.1,0.1-0.2,0.3-0.3,0.4c-0.2,0.2-0.3,0.4-0.5,0.6c-0.1,0.1-0.2,0.3-0.3,0.4c-0.2,0.2-0.3,0.4-0.5,0.6
	c-0.1,0.2-0.2,0.3-0.3,0.5c-0.1,0.2-0.3,0.4-0.4,0.7c-0.1,0.2-0.2,0.3-0.3,0.5c-0.1,0.2-0.3,0.5-0.4,0.7c-0.1,0.2-0.2,0.3-0.3,0.5
	c-0.1,0.3-0.3,0.5-0.4,0.8c-0.1,0.2-0.2,0.3-0.3,0.5c-0.2,0.3-0.3,0.7-0.5,1c-0.1,0.1-0.1,0.2-0.2,0.3c-0.2,0.5-0.4,0.9-0.6,1.4
	c-0.1,0.2-0.1,0.3-0.2,0.5c-0.1,0.3-0.3,0.7-0.4,1c-0.1,0.2-0.1,0.4-0.2,0.6c-0.1,0.3-0.2,0.6-0.3,1c-0.1,0.2-0.1,0.4-0.2,0.7
	c-0.1,0.3-0.2,0.6-0.3,0.9c-0.1,0.2-0.1,0.5-0.2,0.7c-0.1,0.3-0.2,0.6-0.3,1c-0.1,0.2-0.1,0.5-0.2,0.7c-0.1,0.3-0.2,0.7-0.2,1
	c-0.1,0.2-0.1,0.5-0.2,0.7c-0.1,0.4-0.2,0.8-0.2,1.1c0,0.2-0.1,0.4-0.1,0.6c-0.1,0.5-0.2,1-0.3,1.5c0,0.1,0,0.2,0,0.3
	c-0.1,0.6-0.2,1.2-0.3,1.8c0,0.2,0,0.4-0.1,0.6c-0.1,0.4-0.1,0.9-0.2,1.3c0,0.2,0,0.5-0.1,0.7c0,0.4-0.1,0.8-0.1,1.2
	c0,0.3,0,0.5-0.1,0.8c0,0.4-0.1,0.8-0.1,1.2c0,0.3,0,0.5,0,0.8c0,0.4,0,0.8,0,1.2c0,0.3,0,0.5,0,0.8c0,0.4,0,0.8,0,1.2
	c0,0.3,0,0.5,0,0.8c0,0.5,0,0.9,0,1.4c0,0.2,0,0.4,0,0.7c0,0.7,0,1.4,0.1,2.1c1.1,20.1,9.2,36.6,19.2,40.4l3.4,1.3
	C57.2,82.6,49.1,66.2,48,46c0-0.7-0.1-1.4-0.1-2.1c0-0.2,0-0.4,0-0.7C47.9,42.8,47.9,42.3,47.9,41.9z"/>
<g>
	<linearGradient id="SVGID_2_" gradientUnits="userSpaceOnUse" x1="73.3994" y1="74.297" x2="64.3994" y2="-3.7032">
		<stop  offset="0" style="stop-color:#EBC65A"/>
		<stop  offset="1" style="stop-color:#A3502C"/>
	</linearGradient>
	<path class="st1" d="M67.8,2.3c12.1-0.7,23,17.8,24.2,41.3c1.2,23.5-7.6,43-19.7,43.7C60.1,87.9,49.3,69.5,48,46
		C46.8,22.6,55.6,3,67.8,2.3z"/>
</g>
<linearGradient id="SVGID_3_" gradientUnits="userSpaceOnUse" x1="21.8581" y1="46.3364" x2="16.829" y2="119.0026">
	<stop  offset="0" style="stop-color:#EBC65A"/>
	<stop  offset="1" style="stop-color:#A3502C"/>
</linearGradient>
<path class="st2" d="M12.3,103.9C2.4,86.4,1.8,68,10.8,62.9c0.7-0.4,1.4-0.7,2.2-0.9c0.1,0,0.2-0.1,0.4-0.1c0.3-0.1,0.5-0.1,0.8-0.2
	c0.1,0,0.2,0,0.3,0c0.4-0.1,0.7-0.1,1.1-0.1c0.5,0,1.1,0,1.6,0c0.1,0,0.1,0,0.2,0c0.4,0,0.8,0.1,1.3,0.2c0.3,0,0.6,0.1,0.9,0.2
	c0.3,0.1,0.6,0.1,0.8,0.2c0.3,0.1,0.6,0.2,1,0.3c0.4,0.1,0.7,0.2,1.1,0.4c-1.1-0.4-2.2-0.9-3.4-1.3c-0.2-0.1-0.3-0.1-0.5-0.2
	c-0.2-0.1-0.4-0.1-0.6-0.2c-0.3-0.1-0.6-0.2-1-0.3c-0.3-0.1-0.5-0.1-0.8-0.2c-0.3-0.1-0.6-0.1-0.9-0.2c-0.1,0-0.2,0-0.3-0.1
	c-0.3,0-0.7-0.1-1-0.1c-0.1,0-0.1,0-0.2,0c-0.4,0-0.8,0-1.2,0c-0.1,0-0.2,0-0.4,0c-0.4,0-0.7,0.1-1.1,0.1c-0.1,0-0.2,0-0.3,0
	c-0.1,0-0.2,0-0.3,0c-0.2,0-0.4,0.1-0.5,0.1c-0.1,0-0.2,0.1-0.4,0.1c-0.4,0.1-0.7,0.2-1.1,0.4c-0.4,0.2-0.7,0.3-1.1,0.5
	c-9.1,5.1-8.4,23.5,1.5,41c6.4,11.3,15.1,19.5,22.8,22.5l3.4,1.3C27.3,123.4,18.7,115.2,12.3,103.9z"/>
<g>
	<linearGradient id="SVGID_4_" gradientUnits="userSpaceOnUse" x1="48.0026" y1="121.062" x2="-43.4969" y2="-4.4372">
		<stop  offset="0" style="stop-color:#EBC65A"/>
		<stop  offset="1" style="stop-color:#A3502C"/>
	</linearGradient>
	<path class="st3" d="M15.5,61.5c9.1-0.5,21.3,9,29.6,23.7c9.9,17.5,10.5,35.9,1.4,41c-1.4,0.8-3,1.2-4.7,1.3
		c-9.1,0.5-21.3-9-29.6-23.7C2.4,86.4,1.8,68,10.8,62.9C12.2,62.1,13.8,61.6,15.5,61.5z"/>
</g>
<linearGradient id="SVGID_5_" gradientUnits="userSpaceOnUse" x1="159.2757" y1="23.4509" x2="151.5983" y2="147.0876">
	<stop  offset="0" style="stop-color:#EBC65A"/>
	<stop  offset="1" style="stop-color:#A3502C"/>
</linearGradient>
<path class="st4" d="M145.1,85c0.1-0.1,0.1-0.3,0.2-0.4c0.3-0.7,0.6-1.3,1-2c0.1-0.1,0.1-0.2,0.2-0.4c0.3-0.6,0.7-1.2,1-1.8
	c0-0.1,0.1-0.1,0.1-0.2c0.4-0.6,0.7-1.2,1.1-1.8c0.1-0.1,0.2-0.3,0.2-0.4c0.4-0.6,0.7-1.2,1.1-1.7c0.1-0.1,0.1-0.2,0.2-0.3
	c0.4-0.5,0.7-1,1.1-1.5c0.1-0.1,0.1-0.2,0.2-0.3c0.4-0.5,0.8-1.1,1.2-1.6c0.1-0.1,0.2-0.2,0.3-0.3c0.4-0.5,0.8-1,1.2-1.5
	c0.1-0.1,0.1-0.1,0.2-0.2c0.4-0.4,0.8-0.9,1.2-1.3c0.1-0.1,0.2-0.2,0.2-0.3c0.4-0.4,0.8-0.9,1.3-1.3c0.1-0.1,0.2-0.2,0.3-0.3
	c0.4-0.4,0.9-0.8,1.3-1.2c0,0,0,0,0.1-0.1c0.4-0.4,0.8-0.7,1.3-1.1c0.1-0.1,0.2-0.1,0.3-0.2c0.4-0.3,0.9-0.7,1.3-1
	c0.1-0.1,0.2-0.1,0.3-0.2c0.4-0.3,0.9-0.6,1.3-0.8c0,0,0.1,0,0.1,0c0.4-0.3,0.9-0.5,1.3-0.7c0.1,0,0.2-0.1,0.3-0.1
	c0.4-0.2,0.9-0.4,1.3-0.6c0.1,0,0.1,0,0.2-0.1c1-0.4,2-0.7,2.9-0.9c0.1,0,0.1,0,0.2,0c0.2,0,0.4-0.1,0.6-0.1c0.1,0,0.2,0,0.3,0
	c0.3,0,0.6-0.1,0.9-0.1c0.3,0,0.6,0,0.9,0c0.1,0,0.2,0,0.3,0c0.4,0,0.7,0,1,0.1c0,0,0.1,0,0.1,0c0.3,0,0.6,0.1,0.9,0.2
	c0.1,0,0.2,0.1,0.3,0.1c0.3,0.1,0.5,0.2,0.8,0.3l-3.4-1.3c-0.1,0-0.1-0.1-0.2-0.1c-0.2-0.1-0.4-0.1-0.6-0.2c-0.1,0-0.2-0.1-0.3-0.1
	c-0.3-0.1-0.6-0.1-0.9-0.2c0,0-0.1,0-0.1,0c0,0,0,0,0,0c-0.3,0-0.7-0.1-1-0.1c-0.1,0-0.2,0-0.3,0c-0.2,0-0.4,0-0.6,0
	c-0.1,0-0.2,0-0.3,0c-0.3,0-0.6,0-0.9,0.1c-0.1,0-0.2,0-0.3,0c-0.2,0-0.4,0.1-0.6,0.1c0,0-0.1,0-0.1,0c0,0-0.1,0-0.1,0
	c-0.5,0.1-1,0.2-1.4,0.4c0,0,0,0,0,0c-0.5,0.2-1,0.3-1.5,0.5c0,0-0.1,0-0.1,0c0,0,0,0-0.1,0c-0.4,0.2-0.9,0.4-1.3,0.6
	c-0.1,0-0.2,0.1-0.3,0.1c-0.4,0.2-0.9,0.5-1.3,0.7c0,0-0.1,0-0.1,0c-0.4,0.3-0.9,0.5-1.3,0.8c-0.1,0.1-0.2,0.1-0.2,0.2
	c-0.4,0.3-0.9,0.6-1.3,1c-0.1,0.1-0.2,0.1-0.3,0.2c-0.4,0.3-0.9,0.7-1.3,1.1c0,0,0,0,0,0c-0.4,0.4-0.9,0.8-1.3,1.2
	c-0.1,0.1-0.2,0.2-0.3,0.3c-0.4,0.4-0.8,0.8-1.3,1.3c-0.1,0.1-0.1,0.2-0.2,0.2c-0.4,0.4-0.8,0.9-1.2,1.3c0,0.1-0.1,0.1-0.1,0.2
	c-0.4,0.5-0.8,1-1.2,1.5c-0.1,0.1-0.2,0.2-0.3,0.3c-0.4,0.5-0.8,1-1.2,1.6c-0.1,0.1-0.1,0.2-0.2,0.2c-0.4,0.5-0.7,1-1.1,1.6
	c-0.1,0.1-0.1,0.2-0.2,0.3c-0.4,0.6-0.8,1.2-1.1,1.7c-0.1,0.1-0.2,0.3-0.2,0.4c-0.4,0.6-0.7,1.2-1.1,1.9c0,0.1-0.1,0.1-0.1,0.2
	c-0.3,0.6-0.7,1.2-1,1.8c-0.1,0.1-0.1,0.2-0.2,0.4c-0.3,0.6-0.7,1.3-1,2c-0.1,0.1-0.1,0.3-0.2,0.4c-0.3,0.7-0.6,1.4-1,2.1
	c-8,18.5-6.7,36.8,2.9,40.9c0.1,0.1,0.2,0.1,0.4,0.1l3.4,1.3c-0.1,0-0.2-0.1-0.4-0.1c-9.6-4.1-10.8-22.4-2.9-40.9
	C144.4,86.4,144.7,85.7,145.1,85z"/>
<g>
	<linearGradient id="SVGID_6_" gradientUnits="userSpaceOnUse" x1="165.0165" y1="90.1464" x2="198.0164" y2="49.6465">
		<stop  offset="0" style="stop-color:#EBC65A"/>
		<stop  offset="1" style="stop-color:#A3502C"/>
	</linearGradient>
	<path class="st5" d="M171.1,60.3c1.7-0.1,3.3,0.2,4.8,0.8c9.6,4.1,10.8,22.4,2.9,40.9c-6.7,15.6-17.9,26.3-26.9,26.8
		c-1.7,0.1-3.3-0.2-4.8-0.8c-9.6-4.1-10.8-22.4-2.9-40.9C150.8,71.5,162,60.8,171.1,60.3z"/>
</g>
<linearGradient id="SVGID_7_" gradientUnits="userSpaceOnUse" x1="113.1463" y1="5.5764" x2="104.9564" y2="91.4725">
	<stop  offset="0" style="stop-color:#EBC65A"/>
	<stop  offset="1" style="stop-color:#A3502C"/>
</linearGradient>
<path class="st6" d="M99.7,43.9c0-0.3,0-0.5,0-0.8c0-0.4,0-0.8,0-1.2c0-0.3,0-0.5,0-0.8c0-0.4,0-0.8,0-1.2c0-0.3,0-0.5,0-0.8
	c0-0.4,0-0.8,0.1-1.2c0-0.3,0-0.5,0.1-0.8c0-0.4,0.1-0.8,0.1-1.2c0-0.2,0-0.5,0.1-0.7c0-0.4,0.1-0.9,0.2-1.3c0-0.2,0-0.4,0.1-0.6
	c0.1-0.6,0.2-1.2,0.3-1.8c0-0.1,0-0.2,0-0.2c0.1-0.5,0.2-1,0.3-1.6c0-0.2,0.1-0.4,0.1-0.6c0.1-0.4,0.2-0.8,0.2-1.1
	c0.1-0.2,0.1-0.5,0.2-0.7c0.1-0.3,0.2-0.7,0.3-1c0.1-0.2,0.1-0.5,0.2-0.7c0.1-0.3,0.2-0.7,0.3-1c0.1-0.2,0.1-0.5,0.2-0.7
	c0.1-0.3,0.2-0.6,0.3-1c0.1-0.2,0.1-0.4,0.2-0.6c0.1-0.3,0.2-0.6,0.3-1c0.1-0.2,0.1-0.4,0.2-0.6c0.1-0.4,0.3-0.7,0.4-1.1
	c0.1-0.1,0.1-0.3,0.2-0.4c0.2-0.5,0.4-1,0.6-1.4c0-0.1,0.1-0.2,0.1-0.3c0.2-0.4,0.3-0.7,0.5-1.1c0.1-0.2,0.2-0.3,0.2-0.5
	c0.1-0.3,0.3-0.6,0.4-0.8c0.1-0.2,0.2-0.3,0.3-0.5c0.1-0.3,0.3-0.5,0.4-0.7c0.1-0.2,0.2-0.3,0.3-0.5c0.1-0.2,0.3-0.5,0.4-0.7
	c0.1-0.2,0.2-0.3,0.3-0.5c0.2-0.2,0.3-0.4,0.5-0.7c0.1-0.1,0.2-0.3,0.3-0.4c0.2-0.2,0.3-0.4,0.5-0.6c0.1-0.1,0.2-0.3,0.3-0.4
	c0.2-0.2,0.4-0.5,0.6-0.7c0.1-0.1,0.1-0.2,0.2-0.2c0.3-0.3,0.6-0.6,0.9-0.9c0.1-0.1,0.2-0.1,0.2-0.2c0.2-0.2,0.4-0.4,0.7-0.6
	c0.1-0.1,0.2-0.2,0.4-0.3c0.2-0.1,0.4-0.3,0.6-0.4c0.1-0.1,0.3-0.2,0.4-0.3c0.2-0.1,0.4-0.2,0.6-0.4c0.1-0.1,0.3-0.2,0.4-0.2
	c0.2-0.1,0.4-0.2,0.6-0.3c0.1-0.1,0.3-0.1,0.4-0.2c0.2-0.1,0.3-0.1,0.5-0.2c0.2-0.1,0.4-0.2,0.6-0.2c0.2-0.1,0.3-0.1,0.5-0.2
	c0.2-0.1,0.4-0.1,0.6-0.2c0.2,0,0.4-0.1,0.6-0.1c0.1,0,0.2,0,0.3,0c0.3,0,0.7-0.1,1-0.1c0.4,0,0.7,0,1.1,0c0.1,0,0.1,0,0.2,0
	c0.4,0,0.8,0.1,1.1,0.1c0.2,0,0.4,0.1,0.6,0.1c0.2,0,0.4,0.1,0.7,0.1c0.2,0.1,0.4,0.1,0.6,0.2c0.3,0.1,0.5,0.2,0.8,0.3
	c-1.1-0.4-2.2-0.9-3.4-1.3c-0.1,0-0.2-0.1-0.2-0.1c-0.2-0.1-0.3-0.1-0.5-0.2c-0.2-0.1-0.4-0.1-0.6-0.2c-0.2-0.1-0.4-0.1-0.7-0.1
	c-0.2,0-0.4-0.1-0.6-0.1c0,0-0.1,0-0.1,0c-0.3-0.1-0.7-0.1-1-0.1c-0.1,0-0.1,0-0.2,0c-0.3,0-0.5,0-0.8,0c-0.1,0-0.2,0-0.3,0
	c-0.3,0-0.7,0.1-1,0.1c-0.1,0-0.2,0-0.3,0c-0.1,0-0.2,0-0.4,0.1c-0.1,0-0.2,0-0.3,0.1c-0.2,0-0.4,0.1-0.6,0.2
	c-0.2,0-0.3,0.1-0.5,0.2c-0.2,0.1-0.4,0.1-0.6,0.2c-0.1,0-0.2,0.1-0.3,0.1c-0.1,0-0.1,0.1-0.2,0.1c-0.1,0.1-0.3,0.1-0.4,0.2
	c-0.2,0.1-0.4,0.2-0.6,0.3c-0.1,0.1-0.3,0.1-0.4,0.2c-0.2,0.1-0.4,0.2-0.6,0.4c-0.1,0.1-0.2,0.2-0.4,0.2c-0.2,0.1-0.4,0.3-0.6,0.4
	c-0.1,0.1-0.2,0.2-0.3,0.2c-0.2,0.2-0.5,0.4-0.7,0.6c-0.1,0.1-0.1,0.1-0.2,0.2c-0.3,0.3-0.6,0.6-0.9,0.9c-0.1,0.1-0.1,0.1-0.2,0.2
	c-0.2,0.2-0.4,0.5-0.7,0.7c-0.1,0.1-0.2,0.2-0.3,0.4c-0.2,0.2-0.4,0.4-0.5,0.6c-0.1,0.1-0.2,0.3-0.3,0.4c-0.2,0.2-0.3,0.4-0.5,0.7
	c-0.1,0.2-0.2,0.3-0.3,0.5c-0.1,0.2-0.3,0.5-0.4,0.7c-0.1,0.2-0.2,0.3-0.3,0.5c-0.1,0.2-0.3,0.5-0.4,0.7c-0.1,0.2-0.2,0.3-0.3,0.5
	c-0.1,0.3-0.3,0.5-0.4,0.8c-0.1,0.2-0.2,0.3-0.3,0.5c-0.2,0.3-0.3,0.7-0.5,1.1c0,0.1-0.1,0.2-0.1,0.3c-0.2,0.5-0.4,0.9-0.6,1.4
	c-0.1,0.1-0.1,0.3-0.2,0.4c-0.1,0.3-0.3,0.7-0.4,1c-0.1,0.2-0.1,0.4-0.2,0.6c-0.1,0.3-0.2,0.6-0.3,0.9c-0.1,0.2-0.1,0.4-0.2,0.7
	c-0.1,0.3-0.2,0.6-0.3,0.9c-0.1,0.2-0.1,0.5-0.2,0.7c-0.1,0.3-0.2,0.6-0.3,1c-0.1,0.2-0.1,0.5-0.2,0.7c-0.1,0.3-0.2,0.7-0.2,1
	c-0.1,0.2-0.1,0.5-0.2,0.7c-0.1,0.4-0.2,0.7-0.2,1.1c0,0.2-0.1,0.4-0.1,0.6c-0.1,0.5-0.2,1-0.3,1.5c0,0.1,0,0.2-0.1,0.3
	c-0.1,0.6-0.2,1.2-0.3,1.8c0,0.2-0.1,0.4-0.1,0.6c-0.1,0.4-0.1,0.8-0.2,1.3c0,0.2-0.1,0.5-0.1,0.8c0,0.4-0.1,0.8-0.1,1.2
	c0,0.3,0,0.5-0.1,0.8c0,0.4-0.1,0.8-0.1,1.2c0,0.3,0,0.5,0,0.8c0,0.4,0,0.8,0,1.2c0,0.3,0,0.6,0,0.8c0,0.4,0,0.8,0,1.2
	c0,0.3,0,0.5,0,0.8c0,0.5,0,0.9,0,1.4c0,0.2,0,0.5,0,0.7c0,0.7,0,1.4,0.1,2.1c1.1,20.1,9.2,36.6,19.2,40.4l3.4,1.3
	c-10-3.8-18.1-20.3-19.2-40.4c0-0.7-0.1-1.4-0.1-2.1c0-0.2,0-0.5,0-0.7C99.7,44.8,99.7,44.4,99.7,43.9z"/>
<g>
	<linearGradient id="SVGID_8_" gradientUnits="userSpaceOnUse" x1="111.8348" y1="65.4001" x2="143.8349" y2="5.4">
		<stop  offset="0" style="stop-color:#EBC65A"/>
		<stop  offset="1" style="stop-color:#A3502C"/>
	</linearGradient>
	<path class="st7" d="M119.5,4.4c12.1-0.7,23,17.8,24.2,41.3c1.2,23.5-7.6,43-19.7,43.7C111.9,90,101,71.5,99.8,48
		C98.5,24.6,107.4,5,119.5,4.4z"/>
</g>
<linearGradient id="SVGID_9_" gradientUnits="userSpaceOnUse" x1="89.1421" y1="101.9099" x2="18.8405" y2="203.6217">
	<stop  offset="0" style="stop-color:#EBC65A"/>
	<stop  offset="1" style="stop-color:#A3502C"/>
</linearGradient>
<path class="st8" d="M89.5,103.5c0.6-0.1,1.2-0.1,1.8-0.2c0.3,0,0.7,0,1,0c0.7,0,1.4,0,2.1,0c0.1,0,0.2,0,0.3,0
	c0.6,0,1.3,0.1,1.9,0.2c0.1,0,0.3,0,0.4,0.1c0.2,0,0.4,0.1,0.6,0.1c0.3,0,0.5,0.1,0.8,0.1c0.2,0,0.4,0.1,0.6,0.1
	c0.3,0.1,0.5,0.1,0.8,0.2c0.2,0.1,0.4,0.1,0.6,0.2c0.2,0.1,0.5,0.1,0.7,0.2c0.2,0.1,0.4,0.1,0.6,0.2c0.3,0.1,0.7,0.2,1,0.4
	c-1.1-0.4-2.2-0.9-3.4-1.3c-0.2-0.1-0.4-0.1-0.6-0.2c-0.1,0-0.3-0.1-0.4-0.1c-0.2-0.1-0.4-0.1-0.6-0.2c-0.2-0.1-0.5-0.1-0.7-0.2
	c-0.2-0.1-0.4-0.1-0.6-0.2c-0.2-0.1-0.5-0.1-0.7-0.2c-0.2,0-0.4-0.1-0.6-0.1c-0.2,0-0.5-0.1-0.7-0.1c-0.2,0-0.4-0.1-0.6-0.1
	c-0.1,0-0.1,0-0.2,0c-0.1,0-0.2,0-0.2,0c-0.6-0.1-1.3-0.2-1.9-0.2c-0.1,0-0.2,0-0.2,0c-0.7,0-1.4,0-2.1,0c-0.1,0-0.1,0-0.2,0
	c-0.3,0-0.5,0-0.8,0c-0.6,0-1.2,0.1-1.8,0.2c-0.1,0-0.2,0-0.3,0c-0.6,0.1-1.2,0.2-1.8,0.3c0,0-0.1,0-0.1,0c-0.3,0.1-0.5,0.1-0.8,0.2
	c-0.2,0-0.4,0.1-0.6,0.2c-0.6,0.2-1.3,0.3-1.9,0.5c-0.4,0.1-0.7,0.3-1.1,0.4c-0.2,0.1-0.5,0.2-0.7,0.3c0,0,0,0,0,0
	c-0.5,0.2-1,0.5-1.5,0.7c-0.1,0.1-0.3,0.1-0.4,0.2c-0.4,0.2-0.7,0.4-1.1,0.6c-0.1,0.1-0.3,0.2-0.4,0.3c-0.5,0.3-0.9,0.6-1.4,0.9
	c0,0,0,0,0,0c-0.5,0.3-0.9,0.6-1.3,1c-0.1,0.1-0.3,0.2-0.4,0.3c-0.3,0.3-0.6,0.5-0.9,0.8c-0.1,0.1-0.3,0.2-0.4,0.3
	c-0.4,0.4-0.8,0.8-1.2,1.2c-3,3.1-5.2,6.8-6.5,11c-2.9,8.7-2.5,17-24.7,27.6c-22.2,10.6-19.9,29.7-19.8,30.7
	c0.6,12,8.3,21.9,18.9,26c1.1,0.4,2.2,0.9,3.4,1.3c-10.5-4-18.2-14-18.9-26c-0.1-1-2.4-20.1,19.8-30.7c22.2-10.6,21.8-19,24.7-27.6
	c1.3-4.2,3.6-8,6.5-11c0.4-0.4,0.8-0.8,1.2-1.2c0.1-0.1,0.2-0.2,0.4-0.3c0.3-0.3,0.6-0.6,1-0.8c0.1-0.1,0.2-0.2,0.4-0.3
	c0.9-0.7,1.8-1.3,2.7-1.9c0.1-0.1,0.3-0.2,0.4-0.2c0.4-0.2,0.7-0.4,1.1-0.6c0.1-0.1,0.3-0.1,0.4-0.2c0.5-0.2,1-0.5,1.5-0.7
	c0.1,0,0.2-0.1,0.4-0.1c0.5-0.2,0.9-0.4,1.4-0.5c0.6-0.2,1.2-0.4,1.9-0.5c0.2-0.1,0.4-0.1,0.6-0.2c0.3-0.1,0.6-0.1,0.9-0.2
	c0.6-0.1,1.2-0.2,1.8-0.3C89.3,103.6,89.4,103.5,89.5,103.5z"/>
<g>
	<linearGradient id="SVGID_10_" gradientUnits="userSpaceOnUse" x1="103.982" y1="127.5188" x2="73.4822" y2="294.0181">
		<stop  offset="0" style="stop-color:#EBC65A"/>
		<stop  offset="1" style="stop-color:#A3502C"/>
	</linearGradient>
	<path class="st9" d="M91.4,103.4c11.5-0.6,21.7,5.9,26.3,15.7c0.4,0.8,0.7,1.5,0.9,2.2c2.7,6.1,10.8,22.6,20.5,23.7
		c11.7,1.3,29.3,13.3,28.4,32.9c0,0.7-0.1,1.1-0.1,1.6c-1.4,14.3-13,25.9-27.8,26.7c-6.3,0.3-12.2-1.3-17.2-4.4
		c0,0-13.9-9.2-26.5-8.5c-13,0.9-22.2,8.2-28.7,11.2c-4.1,2.6-8.9,4.2-14.1,4.5c-16.3,0.9-30.1-11.6-31-27.9
		c-0.1-1-2.4-20.1,19.8-30.7c22.2-10.6,21.8-19,24.7-27.6c1.3-4.2,3.6-8,6.5-11c3.5-3.6,7.7-6.2,12.8-7.5c0.2-0.1,0.4-0.1,0.6-0.2
		C88.2,103.7,89.8,103.5,91.4,103.4z"/>
</g>
</svg>
