<?xml version="1.0" encoding="utf-8"?>
<!-- Generator: Adobe Illustrator 19.1.1, SVG Export Plug-In . SVG Version: 6.00 Build 0)  -->
<svg version="1.1" id="Rounded_Rectangle_1_1_" opacity="0.5"
	 xmlns="http://www.w3.org/2000/svg" xmlns:xlink="http://www.w3.org/1999/xlink" x="0px" y="0px" viewBox="0 0 14 14"
	 style="enable-background:new 0 0 14 14;" xml:space="preserve">
<g id="Rounded_Rectangle_1">
	<g>
		<path d="M13.7,12.4l-2.9-2.9C11.6,8.5,12,7.3,12,6c0-3.3-2.7-6-6-6S0,2.7,0,6s2.7,6,6,6c1.3,0,2.5-0.4,3.5-1.1l2.9,2.9
			c0.4,0.4,1,0.4,1.4,0C14.1,13.3,14.1,12.7,13.7,12.4z M6,10c-2.2,0-4-1.8-4-4s1.8-4,4-4s4,1.8,4,4S8.2,10,6,10z"/>
	</g>
</g>
</svg>
