<?xml version="1.0" encoding="utf-8"?>
<!-- Generator: Adobe Illustrator 19.1.0, SVG Export Plug-In . SVG Version: 6.00 Build 0)  -->
<svg version="1.1" id="Layer_1" xmlns="http://www.w3.org/2000/svg" xmlns:xlink="http://www.w3.org/1999/xlink" x="0px" y="0px"
	 viewBox="0 0 41 41" style="enable-background:new 0 0 41 41;" xml:space="preserve">
<style type="text/css">
	.st0{opacity:7.000000e-002;fill:url(#);}
	.st1{fill:none;stroke:#666666;stroke-width:0.25;stroke-miterlimit:10;}
	.st2{fill:#666666;}
	.st3{fill:#681CF9;}
	.st4{fill:none;stroke:#FFFFFF;stroke-miterlimit:10;}
	.st5{fill:#FF6839;}
	.st6{fill:#FFFFFF;}
	.st7{fill-rule:evenodd;clip-rule:evenodd;fill:#666666;}
	.st8{fill:none;stroke:#666666;stroke-miterlimit:10;}
	.st9{fill:#CBCBCB;}
	.st10{fill:none;stroke:#FF6839;stroke-width:0.5;stroke-miterlimit:10;}
</style>
<g>
	<circle class="st8" cx="20.5" cy="20.5" r="20"/>
	<path class="st7" d="M20.4,21.5c2.7,0,4.9-2.8,4.9-5.8v-0.9c0-2.9-2.1-5-4.9-5c-2.7,0-4.9,2.1-4.9,5v0.9
		C15.5,18.7,17.6,21.5,20.4,21.5L20.4,21.5z M28.2,26.4C28.1,26.4,28.1,26.3,28.2,26.4c0-0.2-0.1-0.4-0.1-0.6l0,0
		c-0.1-0.4-0.3-0.7-0.5-1.1v0c-0.4-0.6-1.1-1.2-2.1-1.8c-0.5-0.3-0.8-0.4-1.1-0.4c-0.5,0-1,0.4-1.8,1.1h0l-0.7,0.7
		c0,0-0.8,1.1-1.4,1.1c-0.6,0-1.4-1.1-1.4-1.1l-0.7-0.7h0c-0.8-0.7-1.3-1.1-1.8-1.1c-0.3,0-0.6,0.1-1.1,0.4c-1,0.6-1.7,1.2-2.1,1.8
		l0,0c0,0,0,0,0,0c-0.3,0.4-0.4,0.7-0.5,1.1c0,0,0,0,0,0c0,0.2-0.1,0.4-0.1,0.5c0,0,0,0,0,0c0,0.2,0,0.4,0,0.6c0,0,0,4.3,0,4.3
		c0,1.4,0.5,2,2,2h11.7c1.4,0,2-0.5,2-2c0,0,0-4.3,0-4.3C28.2,26.8,28.2,26.6,28.2,26.4L28.2,26.4z M10.6,26.4
		C10.6,26.4,10.6,25.9,10.6,26.4L10.6,26.4z M30.1,26.4C30.1,25.9,30.1,26.4,30.1,26.4L30.1,26.4z M30.1,26.4"/>
</g>
</svg>
