<?xml version="1.0" encoding="utf-8"?>
<!-- Generator: Adobe Illustrator 19.1.0, SVG Export Plug-In . SVG Version: 6.00 Build 0)  -->
<svg version="1.1" id="Layer_1" xmlns="http://www.w3.org/2000/svg" xmlns:xlink="http://www.w3.org/1999/xlink" x="0px" y="0px"
	 viewBox="0 0 41 41" style="enable-background:new 0 0 41 41;" xml:space="preserve">
<style type="text/css">
	.st0{opacity:7.000000e-002;fill:url(#);}
	.st1{fill:#666666;}
	.st2{fill:#20C8EF;}
	.st3{fill:none;stroke:#FFFFFF;stroke-miterlimit:10;}
	.st4{fill:#FFFFFF;}
	.st5{fill:none;stroke:#666666;stroke-miterlimit:10;}
	.st6{fill-rule:evenodd;clip-rule:evenodd;fill:#666666;}
	.st7{fill:#FF6839;}
	.st8{fill:none;stroke:#666666;stroke-width:0.25;stroke-miterlimit:10;}
	.st9{fill:#CBCBCB;}
	.st10{fill:none;stroke:#FF6839;stroke-width:0.5;stroke-miterlimit:10;}
</style>
<g>
	<circle class="st5" cx="20.5" cy="20.5" r="20"/>
	<g>
		<path class="st6" d="M15.1,16.9h-0.7v-6.1c0-0.6-0.5-1.1-1.1-1.1c-0.6,0-1.1,0.5-1.1,1.1v6.1h-0.7c-0.8,0-1.4,0.6-1.4,1.4v1.4
			c0,0.8,0.6,1.4,1.4,1.4h0.7v9c0,0.6,0.5,1.1,1.1,1.1c0.6,0,1.1-0.5,1.1-1.1v-9h0.7c0.8,0,1.4-0.6,1.4-1.4v-1.4
			C16.6,17.6,15.9,16.9,15.1,16.9L15.1,16.9z M22.3,23.4h-0.7V10.8c0-0.6-0.5-1.1-1.1-1.1c-0.6,0-1.1,0.5-1.1,1.1v12.5h-0.7
			c-0.8,0-1.4,0.6-1.4,1.4v1.4c0,0.8,0.6,1.4,1.4,1.4h0.7v2.5c0,0.6,0.5,1.1,1.1,1.1c0.6,0,1.1-0.5,1.1-1.1v-2.5h0.7
			c0.8,0,1.4-0.6,1.4-1.4v-1.4C23.7,24,23.1,23.4,22.3,23.4L22.3,23.4z M29.5,11.9h-0.7v-1.1c0-0.6-0.5-1.1-1.1-1.1
			c-0.6,0-1.1,0.5-1.1,1.1v1.1h-0.7c-0.8,0-1.4,0.6-1.4,1.4v1.4c0,0.8,0.6,1.4,1.4,1.4h0.7v14c0,0.6,0.5,1.1,1.1,1.1
			c0.6,0,1.1-0.5,1.1-1.1v-14h0.7c0.8,0,1.4-0.6,1.4-1.4v-1.4C30.9,12.5,30.2,11.9,29.5,11.9L29.5,11.9z M29.5,11.9"/>
	</g>
	<g>
		<path class="st6" d="M21.6,27.7h0.7c0.8,0,1.4-0.6,1.4-1.4v-1.4c0-0.8-0.6-1.4-1.4-1.4"/>
		<path class="st6" d="M22.3,23.4h-3.6c-0.8,0-1.4,0.6-1.4,1.4v1.4c0,0.8,0.6,1.4,1.4,1.4h2.9"/>
	</g>
</g>
</svg>
