<?xml version="1.0" encoding="utf-8"?>
<!-- Generator: Adobe Illustrator 19.1.0, SVG Export Plug-In . SVG Version: 6.00 Build 0)  -->
<svg version="1.1" xmlns="http://www.w3.org/2000/svg" xmlns:xlink="http://www.w3.org/1999/xlink" x="0px" y="0px"
	 viewBox="0 0 41 194.5" style="enable-background:new 0 0 41 194.5;" xml:space="preserve">
<style type="text/css">
	.st0{fill:#5D5D5D;}
	.st1{fill:#FFFFFF;}
	.st2{fill:#CBCBCB;}
	.st3{opacity:0.5;fill:url(#SVGID_3_);}
	.st4{opacity:0.5;fill:url(#SVGID_8_);}
	.st5{opacity:0.5;fill:url(#SVGID_13_);}
	.st6{opacity:0.5;fill:url(#SVGID_14_);}
	.st7{opacity:7.000000e-002;fill:url(#);}
	.st8{fill:#FF7D4A;}
	.st9{opacity:7.000000e-002;fill:url(#);stroke:#FFFFFF;stroke-miterlimit:10;}
	.st10{fill-rule:evenodd;clip-rule:evenodd;fill:#666666;}
	.st11{fill:#666666;}
	.st12{fill:none;stroke:#666666;stroke-miterlimit:10;}
	.st13{fill:none;stroke:#FF7D4A;stroke-miterlimit:10;}
	.st14{fill:none;}
	.st15{opacity:0.25;fill:url(#SVGID_21_);}
	.st16{opacity:0.25;fill:url(#gradient_1_);}
	.st17{fill:none;stroke:#FFFFFF;stroke-miterlimit:10;}
	.st18{fill:#FFFFFF;stroke:#FFFFFF;stroke-miterlimit:10;}
	.st19{opacity:0.33;fill:url(#SVGID_24_);}
	.st20{opacity:0.5;fill:url(#SVGID_25_);}
	.st21{opacity:0.25;fill:url(#SVGID_26_);}
	.st22{opacity:0.25;fill:url(#SVGID_29_);}
	.st23{fill:none;stroke:#FF7D4A;stroke-width:0.5;stroke-miterlimit:10;}
	.st24{opacity:0.25;}
	.st25{opacity:0.25;fill:url(#SVGID_178_);}
	.st26{clip-path:url(#SVGID_180_);}
	.st27{clip-path:url(#SVGID_182_);}
	.st28{fill:none;stroke:#FF00FF;stroke-miterlimit:10;}
	.st29{opacity:0.75;}
	.st30{opacity:0.5;fill:url(#SVGID_321_);}
	.st31{opacity:0.5;fill:url(#SVGID_328_);}
	.st32{opacity:0.5;fill:url(#SVGID_331_);}
	.st33{opacity:0.5;fill:url(#SVGID_332_);}
	.st34{clip-path:url(#SVGID_334_);}
	.st35{fill:#666666;stroke:#666666;stroke-miterlimit:10;}
	.st36{clip-path:url(#SVGID_336_);}
	.st37{fill:none;stroke:#666666;stroke-width:0.25;stroke-miterlimit:10;}
	.st38{fill:#2BE2A5;}
	.st39{fill:none;stroke:#2BE2A5;stroke-miterlimit:10;}
	.st40{fill:#2BE2A5;stroke:#2BE2A5;stroke-miterlimit:10;}
	.st41{fill:#681CF9;}
	.st42{fill:none;stroke:#681CF9;stroke-miterlimit:10;}
	.st43{fill:#681CF9;stroke:#681CF9;stroke-miterlimit:10;}
	.st44{fill:#FF7D4A;stroke:#FFFFFF;stroke-miterlimit:10;}
	.st45{clip-path:url(#SVGID_338_);}
	.st46{clip-path:url(#SVGID_340_);}
	.st47{fill:none;stroke:#666666;stroke-width:0.5;stroke-miterlimit:10;}
	.st48{fill:#FF7D4A;stroke:#FF7D4A;stroke-width:0.5;stroke-miterlimit:10;}
	.st49{fill:#20C8EF;}
	.st50{clip-path:url(#SVGID_342_);}
	.st51{clip-path:url(#SVGID_344_);}
	.st52{clip-path:url(#SVGID_346_);}
	.st53{clip-path:url(#SVGID_348_);}
	.st54{opacity:0.5;fill:url(#SVGID_351_);}
	.st55{opacity:7.000000e-002;}
	.st56{fill:#747474;}
	.st57{fill:#868686;}
	.st58{fill:#ACACAC;}
	.st59{fill:#BBBBBB;}
	.st60{fill:#D5D5D5;}
	.st61{fill:#BDBDBD;}
	.st62{fill:#B4B4B4;}
	.st63{fill:#989898;}
	.st64{fill:#D4D4D4;}
	.st65{fill:#848484;}
	.st66{fill:#BEBEBE;}
	.st67{fill:#707070;}
	.st68{fill:#AEAEAE;}
	.st69{fill:#CFCFCF;}
	.st70{fill:#9C9C9C;}
	.st71{fill:#999999;}
	.st72{fill:#A0A0A0;}
	.st73{fill:#8F8F8F;}
	.st74{fill:#DEDEDE;}
	.st75{fill:#AFAFAF;}
	.st76{fill:#787878;}
	.st77{fill:#B2B2B2;}
	.st78{fill:#C8C8C8;}
	.st79{fill:#898989;}
	.st80{fill:#AAAAAA;}
	.st81{fill:#CCCCCC;}
	.st82{fill:#9E9E9E;}
	.st83{fill:#8D8D8D;}
	.st84{fill:#9A9A9A;}
	.st85{fill:#B7B7B7;}
	.st86{fill:#A5A5A5;}
	.st87{fill:#808080;}
	.st88{fill:#929292;}
	.st89{fill:#7B7B7B;}
	.st90{fill:#858585;}
	.st91{fill:#8B8B8B;}
	.st92{fill:#C6C6C6;}
	.st93{fill:#A6A6A6;}
	.st94{fill:#8A8A8A;}
	.st95{fill:#ABABAB;}
	.st96{fill:#A1A1A1;}
	.st97{fill:#9D9D9D;}
	.st98{fill:#878787;}
	.st99{fill:#949494;}
	.st100{fill:#C5C5C5;}
	.st101{fill:#8C8C8C;}
	.st102{fill:#ADADAD;}
	.st103{fill:#585858;}
	.st104{fill:#BCBCBC;}
	.st105{fill:#7C7C7C;}
	.st106{fill:#626262;}
	.st107{fill:#939393;}
	.st108{fill:#828282;}
	.st109{fill:#6D6D6D;}
	.st110{fill:#767676;}
	.st111{fill:#A7A7A7;}
	.st112{fill:#818181;}
	.st113{fill:#9B9B9B;}
	.st114{fill:#A8A8A8;}
	.st115{fill:#A4A4A4;}
	.st116{fill:#BFBFBF;}
	.st117{fill:#A3A3A3;}
	.st118{fill:#919191;}
	.st119{fill:#7D7D7D;}
	.st120{fill:#727272;}
	.st121{fill:#B1B1B1;}
	.st122{fill:#A2A2A2;}
	.st123{fill:#9F9F9F;}
	.st124{fill:#B6B6B6;}
	.st125{fill:#777777;}
	.st126{fill:#696969;}
	.st127{fill:#959595;}
	.st128{fill:#C2C2C2;}
	.st129{fill:#969696;}
	.st130{fill:#CACACA;}
	.st131{fill:#909090;}
	.st132{fill:#DFDFDF;}
	.st133{fill:#979797;}
	.st134{fill:#888888;}
	.st135{fill:#7E7E7E;}
	.st136{fill:#6C6C6C;}
	.st137{fill:#8E8E8E;}
	.st138{fill:#A9A9A9;}
	.st139{fill:#555555;}
	.st140{fill:#B3B3B3;}
	.st141{fill:#838383;}
	.st142{fill:#535353;}
	.st143{fill:#B8B8B8;}
	.st144{fill:#C1C1C1;}
	.st145{fill:#7F7F7F;}
	.st146{fill:#C0C0C0;}
	.st147{fill:#CECECE;}
	.st148{fill:#7A7A7A;}
	.st149{fill:#B9B9B9;}
	.st150{fill:#646464;}
	.st151{fill:#BABABA;}
	.st152{fill:#C9C9C9;}
	.st153{fill:#C3C3C3;}
	.st154{fill:#797979;}
	.st155{fill:#C4C4C4;}
	.st156{fill:#6F6F6F;}
	.st157{fill:#B0B0B0;}
	.st158{fill:#D8D8D8;}
	.st159{fill:#656565;}
	.st160{fill:#DCDCDC;}
	.st161{fill:#616161;}
	.st162{fill:#C7C7C7;}
	.st163{fill:#B5B5B5;}
	.st164{fill:#E3E3E3;}
	.st165{fill:#D2D2D2;}
	.st166{fill:#5F5F5F;}
	.st167{fill:#D7D7D7;}
	.st168{fill:#CDCDCD;}
	.st169{fill:#757575;}
	.st170{fill:#717171;}
	.st171{fill:#505050;}
	.st172{fill:#737373;}
	.st173{fill:#606060;}
	.st174{fill:#6B6B6B;}
	.st175{fill:#676767;}
	.st176{fill:#5E5E5E;}
	.st177{fill:#D1D1D1;}
	.st178{fill:#5A5A5A;}
	.st179{fill:#D0D0D0;}
	.st180{fill:#636363;}
	.st181{fill:#545454;}
	.st182{fill:#DDDDDD;}
	.st183{fill:#6E6E6E;}
	.st184{fill:#6A6A6A;}
	.st185{fill:#686868;}
	.st186{fill:#D9D9D9;}
	.st187{fill:#E1E1E1;}
	.st188{fill:#D6D6D6;}
	.st189{fill-rule:evenodd;clip-rule:evenodd;fill:#FF6839;}
	.st190{fill:none;stroke:#FF6839;stroke-miterlimit:10;}
	.st191{fill:none;stroke:#FF00FF;stroke-miterlimit:10;stroke-dasharray:1.9771,1.9771;}
	.st192{fill:none;stroke:#FF00FF;stroke-miterlimit:10;stroke-dasharray:1.9422,1.9422;}
	.st193{fill:none;stroke:#FF0000;stroke-miterlimit:10;}
</style>
<g id="content">
	<g>
		<g>
			<g>
				<g>
					<g>
						<g>
							<path class="st10" d="M25.1,177c-0.9,0-1.7,0.3-2.4,0.8l-5-2.9c0-0.1,0-0.2,0-0.3c0-0.1,0-0.2,0-0.3l5-2.9
								c0.7,0.5,1.5,0.8,2.4,0.8c2.1,0,3.8-1.7,3.8-3.8c0-2.1-1.7-3.8-3.8-3.8c-2.1,0-3.8,1.7-3.8,3.8c0,0.2,0,0.3,0,0.5l-5,2.8
								c-0.6-0.5-1.5-0.8-2.3-0.8c-2.1,0-3.8,1.7-3.8,3.8c0,2.1,1.7,3.8,3.8,3.8c0.9,0,1.7-0.3,2.3-0.8l5,2.8c0,0.2,0,0.3,0,0.5
								c0,2.1,1.7,3.8,3.8,3.8c2.1,0,3.8-1.7,3.8-3.8C28.9,178.8,27.2,177,25.1,177z M13.8,177.2c-1.4,0-2.6-1.2-2.6-2.6
								c0-1.4,1.2-2.6,2.6-2.6c1.4,0,2.6,1.2,2.6,2.6C16.4,176,15.2,177.2,13.8,177.2z"/>
						</g>
					</g>
				</g>
			</g>
			<g>
				<rect x="20.2" y="115.2" class="st11" width="0.7" height="38.5"/>
			</g>
		</g>
		<g>
			<rect x="20.2" y="40.5" class="st11" width="0.7" height="35"/>
		</g>
		<g>
			<g>
				<path class="st189" d="M20.5,96.6c2.5,0,4.5-2.6,4.5-5.3v-0.8c0-2.7-2-4.6-4.5-4.6c-2.5,0-4.5,1.9-4.5,4.6v0.8
					C16,94,18,96.6,20.5,96.6L20.5,96.6z M27.6,101.1C27.6,101.1,27.6,101.1,27.6,101.1c0-0.2-0.1-0.4-0.1-0.5c0,0,0,0,0,0
					c-0.1-0.3-0.3-0.7-0.5-1v0c-0.4-0.5-1-1.1-1.9-1.6c-0.5-0.3-0.7-0.4-1-0.4c-0.5,0-0.9,0.4-1.7,1.1h0l-0.7,0.6c0,0-0.7,1-1.3,1
					c-0.5,0-1.2-1-1.3-1l-0.7-0.6h0c-0.7-0.7-1.2-1.1-1.7-1.1c-0.3,0-0.6,0.1-1,0.4C15,98.5,14.3,99,14,99.6l0,0c0,0,0,0,0,0
					c-0.2,0.3-0.4,0.7-0.5,1c0,0,0,0,0,0c0,0.2-0.1,0.3-0.1,0.5c0,0,0,0,0,0c0,0.2,0,0.4,0,0.5c0,0,0,3.9,0,3.9
					c0,1.3,0.5,1.8,1.8,1.8h10.8c1.3,0,1.8-0.5,1.8-1.8c0,0,0-3.9,0-3.9C27.7,101.5,27.7,101.3,27.6,101.1L27.6,101.1z M11.5,101.1
					C11.6,101.1,11.5,100.7,11.5,101.1L11.5,101.1z M29.5,101.1C29.5,100.7,29.4,101.1,29.5,101.1L29.5,101.1z M29.5,101.1"/>
			</g>
		</g>
		<g>
			<g>
				<path class="st11" d="M9.4,20.5c0-6.1,5-11.1,11.1-11.1s11.1,5,11.1,11.1s-5,11.1-11.1,11.1S9.4,26.6,9.4,20.5z M29,20.5
					c0-4.7-3.8-8.5-8.5-8.5S12,15.8,12,20.5s3.8,8.5,8.5,8.5S29,25.2,29,20.5z"/>
			</g>
			<g>
				<path class="st11" d="M13.5,20.5c0-3.9,3.1-7,7-7s7,3.1,7,7s-3.1,7-7,7S13.5,24.4,13.5,20.5z M24.9,20.5c0-2.4-2-4.4-4.4-4.4
					s-4.4,2-4.4,4.4s2,4.4,4.4,4.4S24.9,22.9,24.9,20.5z"/>
			</g>
		</g>
		<circle class="st190" cx="20.5" cy="95.2" r="20"/>
		<circle class="st12" cx="20.5" cy="20.5" r="20"/>
		<circle class="st12" cx="20.5" cy="174" r="20"/>
	</g>
</g>
<g id="guidelines">
</g>
</svg>
