<svg id="Слой_1" xmlns="http://www.w3.org/2000/svg" viewBox="0 0 185 210"><style>.st0{fill:url(#SVGID_1_)}.st1{fill:url(#SVGID_2_)}.st2{fill:url(#SVGID_3_)}.st3{fill:url(#SVGID_4_)}.st4{fill:url(#SVGID_5_)}.st5{fill:url(#SVGID_6_)}.st6{fill:url(#SVGID_7_)}.st7{fill:url(#SVGID_8_)}.st8{fill:url(#SVGID_9_)}.st9{fill:url(#SVGID_10_)}</style><linearGradient id="SVGID_1_" gradientUnits="userSpaceOnUse" x1="57.789" y1="5.905" x2="62.422" y2="94.588"><stop offset="0" stop-color="#ebc65a"/><stop offset="1" stop-color="#a3502c"/></linearGradient><path class="st0" d="M47.9 41.9v-.8-1.2-.8-1.2-.8c0-.4 0-.8.1-1.2 0-.3 0-.5.1-.8 0-.4.1-.8.1-1.2 0-.2 0-.5.1-.7 0-.4.1-.9.2-1.3 0-.2 0-.4.1-.6l.3-1.8v-.3l.3-1.5c0-.2.1-.4.1-.6.1-.4.2-.8.2-1.1.1-.2.1-.5.2-.7.1-.3.2-.7.2-1 .1-.2.1-.5.2-.7.1-.3.2-.6.3-1 .1-.2.1-.5.2-.7l.3-.9c.1-.2.1-.4.2-.7l.3-.9c.1-.2.1-.4.2-.6.1-.4.3-.7.4-1 .1-.2.1-.3.2-.5.2-.5.4-1 .6-1.4.1-.1.1-.2.2-.3.2-.4.3-.7.5-1 .1-.2.2-.3.3-.5.1-.3.3-.5.4-.8.1-.2.2-.3.3-.5.1-.2.3-.5.4-.7.1-.2.2-.3.3-.5.1-.2.3-.5.4-.7.1-.2.2-.3.3-.5.2-.2.3-.4.5-.6.1-.1.2-.3.3-.4.2-.2.3-.4.5-.6.1-.1.2-.3.3-.4.2-.2.4-.5.6-.7.1-.1.1-.2.2-.2l.9-.9c.2-.5.3-.6.4-.6.2-.2.4-.4.7-.6.1-.1.2-.2.4-.3.1-.1.3-.3.5-.4.1-.1.3-.2.4-.3.2-.1.4-.2.6-.4.1-.1.3-.2.4-.2l.6-.3c.1-.1.3-.1.4-.2.2-.1.3-.1.5-.2s.4-.2.6-.2c.2-.1.3-.1.5-.2s.4-.1.6-.2c.2 0 .4-.1.6-.1h.3c.3 0 .7-.1 1-.1H69c.4 0 .8.1 1.1.1.2 0 .4.1.6.1.2 0 .4.1.7.1.2.1.4.1.6.2.3.1.5.2.8.3-1.1-.4-2.2-.9-3.4-1.3-.1 0-.2-.1-.2-.1-.2-.1-.4-.1-.5-.2-.2-.1-.4-.1-.6-.2-.2-.1-.4-.1-.7-.1-.2 0-.4-.1-.6-.1h-.1c-.3-.1-.7-.1-1-.1h-1.3c-.3 0-.7.1-1 .1h-.3c-.1 0-.2 0-.3.1-.1 0-.2 0-.3.1-.2 0-.4.1-.6.2-.2 0-.3.1-.5.2s-.4.1-.6.2c-.1 0-.2.1-.3.1-.1 0-.1.1-.2.1-.1.1-.3.1-.4.2l-.6.3c-.1.1-.3.1-.4.2-.2.1-.4.2-.6.4-.1.1-.3.2-.4.3-.2.1-.4.3-.6.4-.2 0-.3.1-.4.2-.2.2-.4.4-.7.6-.1.1-.2.1-.2.2l-.9.9c-.1 0-.1.1-.2.2-.2.2-.4.5-.6.7-.1.1-.2.3-.3.4-.2.2-.3.4-.5.6-.1.1-.2.3-.3.4-.2.2-.3.4-.5.6-.1.2-.2.3-.3.5-.1.2-.3.4-.4.7-.1.2-.2.3-.3.5-.1.2-.3.5-.4.7-.1.2-.2.3-.3.5-.1.3-.3.5-.4.8-.1.2-.2.3-.3.5-.2.3-.3.7-.5 1-.1.1-.1.2-.2.3-.2.5-.4.9-.6 1.4-.1.2-.1.3-.2.5-.1.3-.3.7-.4 1-.1.2-.1.4-.2.6-.1.3-.2.6-.3 1-.1.2-.1.4-.2.7l-.3.9c-.1.2-.1.5-.2.7-.1.3-.2.6-.3 1-.1.2-.1.5-.2.7-.1.3-.2.7-.2 1-.1.2-.1.5-.2.7-.1.4-.2.8-.2 1.1 0 .2-.1.4-.1.6l-.3 1.5v.3l-.3 1.8c0 .2 0 .4-.1.6-.1.4-.1.9-.2 1.3 0 .2 0 .5-.1.7 0 .4-.1.8-.1 1.2 0 .3 0 .5-.1.8 0 .4-.1.8-.1 1.2V42.4c0 .7 0 1.4.1 2.1C45.9 64.6 54 81.1 64 84.9l3.4 1.3C57.2 82.6 49.1 66.2 48 46c0-.7-.1-1.4-.1-2.1v-.7-1.3z"/><linearGradient id="SVGID_2_" gradientUnits="userSpaceOnUse" x1="73.399" y1="74.297" x2="64.399" y2="-3.703"><stop offset="0" stop-color="#ebc65a"/><stop offset="1" stop-color="#a3502c"/></linearGradient><path class="st1" d="M67.8 2.3c12.1-.7 23 17.8 24.2 41.3 1.2 23.5-7.6 43-19.7 43.7-12.2.6-23-17.8-24.3-41.3-1.2-23.4 7.6-43 19.8-43.7z"/><linearGradient id="SVGID_3_" gradientUnits="userSpaceOnUse" x1="21.858" y1="46.336" x2="16.829" y2="119.003"><stop offset="0" stop-color="#ebc65a"/><stop offset="1" stop-color="#a3502c"/></linearGradient><path class="st2" d="M12.3 103.9C2.4 86.4 1.8 68 10.8 62.9c.7-.4 1.4-.7 2.2-.9.1 0 .2-.1.4-.1.3-.1.5-.1.8-.2h.3c.4-.1.7-.1 1.1-.1h1.8c.4 0 .8.1 1.3.2.3 0 .6.1.9.2.3.1.6.1.8.2.3.1.6.2 1 .3.4.1.7.2 1.1.4-1.1-.4-2.2-.9-3.4-1.3-.2-.1-.3-.1-.5-.2s-.4-.1-.6-.2c-.3-.1-.6-.2-1-.3-.3-.1-.5-.1-.8-.2-.3-.1-.6-.1-.9-.2-.1 0-.2 0-.3-.1-.3 0-.7-.1-1-.1H12.2c-.4 0-.7.1-1.1.1h-.6c-.2 0-.4.1-.5.1-.1 0-.2.1-.4.1-.4.1-.7.2-1.1.4-.4.2-.7.3-1.1.5-9.1 5.1-8.4 23.5 1.5 41C15.3 113.8 24 122 31.7 125l3.4 1.3c-7.8-2.9-16.4-11.1-22.8-22.4z"/><linearGradient id="SVGID_4_" gradientUnits="userSpaceOnUse" x1="48.003" y1="121.062" x2="-43.497" y2="-4.437"><stop offset="0" stop-color="#ebc65a"/><stop offset="1" stop-color="#a3502c"/></linearGradient><path class="st3" d="M15.5 61.5c9.1-.5 21.3 9 29.6 23.7 9.9 17.5 10.5 35.9 1.4 41-1.4.8-3 1.2-4.7 1.3-9.1.5-21.3-9-29.6-23.7C2.4 86.4 1.8 68 10.8 62.9c1.4-.8 3-1.3 4.7-1.4z"/><linearGradient id="SVGID_5_" gradientUnits="userSpaceOnUse" x1="159.276" y1="23.451" x2="151.598" y2="147.088"><stop offset="0" stop-color="#ebc65a"/><stop offset="1" stop-color="#a3502c"/></linearGradient><path class="st4" d="M145.1 85c.1-.1.1-.3.2-.4.3-.7.6-1.3 1-2 .1-.1.1-.2.2-.4.3-.6.7-1.2 1-1.8 0-.1.1-.1.1-.2.4-.6.7-1.2 1.1-1.8.1-.1.2-.3.2-.4.4-.6.7-1.2 1.1-1.7.1-.1.1-.2.2-.3.4-.5.7-1 1.1-1.5.1-.1.1-.2.2-.3.4-.5.8-1.1 1.2-1.6l.3-.3 1.2-1.5.2-.2c.4-.4.8-.9 1.2-1.3.1-.1.2-.2.2-.3.4-.4.8-.9 1.3-1.3l.3-.3c.4-.4.9-.8 1.3-1.2l.1-.1c.4-.4.8-.7 1.3-1.1.1-.1.2-.1.3-.2.4-.3.9-.7 1.3-1 .1-.1.2-.1.3-.2.4-.3.9-.6 1.3-.8h.1c.4-.3.9-.5 1.3-.7.1 0 .2-.1.3-.1.4-.2.9-.4 1.3-.6.1 0 .1 0 .2-.1 1-.4 2-.7 2.9-.9h.2c.2 0 .4-.1.6-.1h.3c.3 0 .6-.1.9-.1h1.2c.4 0 .7 0 1 .1h.1c.3 0 .6.1.9.2.1 0 .2.1.3.1.3.1.5.2.8.3l-3.4-1.3c-.1 0-.1-.1-.2-.1-.2-.1-.4-.1-.6-.2-.1 0-.2-.1-.3-.1-.3-.1-.6-.1-.9-.2h-.1c-.3 0-.7-.1-1-.1H168c-.3 0-.6 0-.9.1h-.3c-.2 0-.4.1-.6.1h-.1-.1c-.5.1-1 .2-1.4.4-.5.2-1 .3-1.5.5h-.1-.1c-.4.2-.9.4-1.3.6-.1 0-.2.1-.3.1-.4.2-.9.5-1.3.7h-.1c-.4.3-.9.5-1.3.8-.1.1-.2.1-.2.2-.4.3-.9.6-1.3 1-.1.1-.2.1-.3.2-.4.3-.9.7-1.3 1.1-.4.4-.9.8-1.3 1.2l-.3.3-1.3 1.3c-.1.1-.1.2-.2.2-.4.4-.8.9-1.2 1.3 0 .1-.1.1-.1.2l-1.2 1.5-.3.3c-.4.5-.8 1-1.2 1.6-.1.1-.1.2-.2.2-.4.5-.7 1-1.1 1.6-.1.1-.1.2-.2.3-.4.6-.8 1.2-1.1 1.7-.1.1-.2.3-.2.4-.4.6-.7 1.2-1.1 1.9 0 .1-.1.1-.1.2-.3.6-.7 1.2-1 1.8-.1.1-.1.2-.2.4-.3.6-.7 1.3-1 2-.1.1-.1.3-.2.4-.3.7-.6 1.4-1 2.1-8 18.5-6.7 36.8 2.9 40.9.1.1.2.1.4.1l3.4 1.3c-.1 0-.2-.1-.4-.1-9.6-4.1-10.8-22.4-2.9-40.9 0-.5.3-1.2.7-1.9z"/><linearGradient id="SVGID_6_" gradientUnits="userSpaceOnUse" x1="165.017" y1="90.146" x2="198.016" y2="49.647"><stop offset="0" stop-color="#ebc65a"/><stop offset="1" stop-color="#a3502c"/></linearGradient><path class="st5" d="M171.1 60.3c1.7-.1 3.3.2 4.8.8 9.6 4.1 10.8 22.4 2.9 40.9-6.7 15.6-17.9 26.3-26.9 26.8-1.7.1-3.3-.2-4.8-.8-9.6-4.1-10.8-22.4-2.9-40.9 6.6-15.6 17.8-26.3 26.9-26.8z"/><linearGradient id="SVGID_7_" gradientUnits="userSpaceOnUse" x1="113.146" y1="5.576" x2="104.956" y2="91.472"><stop offset="0" stop-color="#ebc65a"/><stop offset="1" stop-color="#a3502c"/></linearGradient><path class="st6" d="M99.7 43.9v-.8-1.2-.8-1.2-.8c0-.4 0-.8.1-1.2 0-.3 0-.5.1-.8 0-.4.1-.8.1-1.2 0-.2 0-.5.1-.7 0-.4.1-.9.2-1.3 0-.2 0-.4.1-.6l.3-1.8v-.2c.1-.5.2-1 .3-1.6 0-.2.1-.4.1-.6.1-.4.2-.8.2-1.1.1-.2.1-.5.2-.7.1-.3.2-.7.3-1 .1-.2.1-.5.2-.7.1-.3.2-.7.3-1 .1-.2.1-.5.2-.7.1-.3.2-.6.3-1 .1-.2.1-.4.2-.6.1-.3.2-.6.3-1 .1-.2.1-.4.2-.6.1-.4.3-.7.4-1.1.1-.1.1-.3.2-.4.2-.5.4-1 .6-1.4 0-.1.1-.2.1-.3.2-.4.3-.7.5-1.1.1-.2.2-.3.2-.5.1-.3.3-.6.4-.8.1-.2.2-.3.3-.5.1-.3.3-.5.4-.7.1-.2.2-.3.3-.5.1-.2.3-.5.4-.7.1-.2.2-.3.3-.5.2-.2.3-.4.5-.7.1-.1.2-.3.3-.4.2-.2.3-.4.5-.6.1-.1.2-.3.3-.4.2-.2.4-.5.6-.7.1-.1.1-.2.2-.2l.9-.9c.1-.1.2-.1.2-.2.2-.2.4-.4.7-.6.1-.1.2-.2.4-.3.2-.1.4-.3.6-.4.1-.1.3-.2.4-.3.2-.1.4-.2.6-.4.1-.1.3-.2.4-.2l.6-.3c.1-.1.3-.1.4-.2.2-.1.3-.1.5-.2s.4-.2.6-.2c.2-.1.3-.1.5-.2s.4-.1.6-.2c.2 0 .4-.1.6-.1h.3c.3 0 .7-.1 1-.1h1.3c.4 0 .8.1 1.1.1.2 0 .4.1.6.1.2 0 .4.1.7.1.2.1.4.1.6.2.3.1.5.2.8.3-1.1-.4-2.2-.9-3.4-1.3-.1 0-.2-.1-.2-.1-.2-.1-.3-.1-.5-.2s-.4-.1-.6-.2c-.2-.1-.4-.1-.7-.1-.2 0-.4-.1-.6-.1h-.1c-.3-.1-.7-.1-1-.1H116c-.3 0-.7.1-1 .1h-.3c-.1 0-.2 0-.4.1-.1 0-.2 0-.3.1-.2 0-.4.1-.6.2-.2 0-.3.1-.5.2s-.4.1-.6.2c-.1 0-.2.1-.3.1-.1 0-.1.1-.2.1-.1.1-.3.1-.4.2l-.6.3c-.1.1-.3.1-.4.2-.2.1-.4.2-.6.4-.1.1-.2.2-.4.2-.2.1-.4.3-.6.4-.1.1-.2.2-.3.2-.2.2-.5.4-.7.6l-.2.2-.9.9-.2.2c-.2.2-.4.5-.7.7-.1.1-.2.2-.3.4-.2.2-.4.4-.5.6-.1.1-.2.3-.3.4-.2.2-.3.4-.5.7-.1.2-.2.3-.3.5-.1.2-.3.5-.4.7-.1.2-.2.3-.3.5-.1.2-.3.5-.4.7-.1.2-.2.3-.3.5-.1.3-.3.5-.4.8-.1.2-.2.3-.3.5-.2.3-.3.7-.5 1.1 0 .1-.1.2-.1.3-.2.5-.4.9-.6 1.4-.1.1-.1.3-.2.4-.1.3-.3.7-.4 1-.1.2-.1.4-.2.6l-.3.9c-.1.2-.1.4-.2.7l-.3.9c-.1.2-.1.5-.2.7-.1.3-.2.6-.3 1-.1.2-.1.5-.2.7-.1.3-.2.7-.2 1-.1.2-.1.5-.2.7-.1.4-.2.7-.2 1.1 0 .2-.1.4-.1.6l-.3 1.5c0 .1 0 .2-.1.3l-.3 1.8c0 .2-.1.4-.1.6-.1.4-.1.8-.2 1.3 0 .2-.1.5-.1.8 0 .4-.1.8-.1 1.2 0 .3 0 .5-.1.8 0 .4-.1.8-.1 1.2V44.5c0 .7 0 1.4.1 2.1 1.1 20.1 9.2 36.6 19.2 40.4l3.4 1.3c-10-3.8-18.1-20.3-19.2-40.4 0-.7-.1-1.4-.1-2.1v-.7c.1-.3.1-.7.1-1.2z"/><linearGradient id="SVGID_8_" gradientUnits="userSpaceOnUse" x1="111.835" y1="65.4" x2="143.835" y2="5.4"><stop offset="0" stop-color="#ebc65a"/><stop offset="1" stop-color="#a3502c"/></linearGradient><path class="st7" d="M119.5 4.4c12.1-.7 23 17.8 24.2 41.3 1.2 23.5-7.6 43-19.7 43.7-12.1.6-23-17.9-24.2-41.4-1.3-23.4 7.6-43 19.7-43.6z"/><linearGradient id="SVGID_9_" gradientUnits="userSpaceOnUse" x1="89.142" y1="101.91" x2="18.84" y2="203.622"><stop offset="0" stop-color="#ebc65a"/><stop offset="1" stop-color="#a3502c"/></linearGradient><path class="st8" d="M89.5 103.5c.6-.1 1.2-.1 1.8-.2h3.4c.6 0 1.3.1 1.9.2.1 0 .3 0 .4.1.2 0 .4.1.6.1.3 0 .5.1.8.1.2 0 .4.1.6.1.3.1.5.1.8.2.2.1.4.1.6.2.2.1.5.1.7.2.2.1.4.1.6.2.3.1.7.2 1 .4-1.1-.4-2.2-.9-3.4-1.3-.2-.1-.4-.1-.6-.2-.1 0-.3-.1-.4-.1-.2-.1-.4-.1-.6-.2-.2-.1-.5-.1-.7-.2-.2-.1-.4-.1-.6-.2-.2-.1-.5-.1-.7-.2-.2 0-.4-.1-.6-.1-.2 0-.5-.1-.7-.1-.2 0-.4-.1-.6-.1h-.4c-.6-.1-1.3-.2-1.9-.2H88.2c-.6 0-1.2.1-1.8.2h-.3l-1.8.3h-.1c-.3.1-.5.1-.8.2-.2 0-.4.1-.6.2-.6.2-1.3.3-1.9.5-.4.1-.7.3-1.1.4-.2.1-.5.2-.7.3-.5.2-1 .5-1.5.7-.1.1-.3.1-.4.2-.4.2-.7.4-1.1.6-.1.1-.3.2-.4.3-.5.3-.9.6-1.4.9-.5.3-.9.6-1.3 1-.1.1-.3.2-.4.3-.3.3-.6.5-.9.8-.1.1-.3.2-.4.3l-1.2 1.2c-3 3.1-5.2 6.8-6.5 11-2.9 8.7-2.5 17-24.7 27.6-22.2 10.6-19.9 29.7-19.8 30.7.6 12 8.3 21.9 18.9 26 1.1.4 2.2.9 3.4 1.3-10.5-4-18.2-14-18.9-26-.1-1-2.4-20.1 19.8-30.7 22.2-10.6 21.8-19 24.7-27.6 1.3-4.2 3.6-8 6.5-11l1.2-1.2c.1-.1.2-.2.4-.3.3-.3.6-.6 1-.8.1-.1.2-.2.4-.3.9-.7 1.8-1.3 2.7-1.9.1-.1.3-.2.4-.2.4-.2.7-.4 1.1-.6.1-.1.3-.1.4-.2.5-.2 1-.5 1.5-.7.1 0 .2-.1.4-.1.5-.2.9-.4 1.4-.5.6-.2 1.2-.4 1.9-.5.2-.1.4-.1.6-.2.3-.1.6-.1.9-.2l1.8-.3c-.3-.3-.2-.4-.1-.4z"/><g><linearGradient id="SVGID_10_" gradientUnits="userSpaceOnUse" x1="103.982" y1="127.519" x2="73.482" y2="294.018"><stop offset="0" stop-color="#ebc65a"/><stop offset="1" stop-color="#a3502c"/></linearGradient><path class="st9" d="M91.4 103.4c11.5-.6 21.7 5.9 26.3 15.7.4.8.7 1.5.9 2.2 2.7 6.1 10.8 22.6 20.5 23.7 11.7 1.3 29.3 13.3 28.4 32.9 0 .7-.1 1.1-.1 1.6-1.4 14.3-13 25.9-27.8 26.7-6.3.3-12.2-1.3-17.2-4.4 0 0-13.9-9.2-26.5-8.5-13 .9-22.2 8.2-28.7 11.2-4.1 2.6-8.9 4.2-14.1 4.5-16.3.9-30.1-11.6-31-27.9-.1-1-2.4-20.1 19.8-30.7 22.2-10.6 21.8-19 24.7-27.6 1.3-4.2 3.6-8 6.5-11 3.5-3.6 7.7-6.2 12.8-7.5.2-.1.4-.1.6-.2 1.7-.4 3.3-.6 4.9-.7z"/></g></svg>